<?xml version="1.0" standalone="no"?>
<!DOCTYPE svg PUBLIC "-//W3C//DTD SVG 20010904//EN"
 "http://www.w3.org/TR/2001/REC-SVG-20010904/DTD/svg10.dtd">
<svg version="1.0" xmlns="http://www.w3.org/2000/svg"
 width="666.000000pt" height="375.000000pt" viewBox="0 0 666.000000 375.000000"
 preserveAspectRatio="xMidYMid meet">

<g transform="translate(0.000000,375.000000) scale(0.100000,-0.100000)"
fill="#000000" stroke="none">
<path d="M2323 2163 c9 -2 23 -2 30 0 6 3 -1 5 -18 5 -16 0 -22 -2 -12 -5z"/>
<path d="M2498 2163 c12 -2 32 -2 45 0 12 2 2 4 -23 4 -25 0 -35 -2 -22 -4z"/>
<path d="M2583 2153 c9 -2 23 -2 30 0 6 3 -1 5 -18 5 -16 0 -22 -2 -12 -5z"/>
<path d="M2640 2146 c0 -2 7 -7 16 -10 8 -3 12 -2 9 4 -6 10 -25 14 -25 6z"/>
<path d="M2110 2120 c-8 -5 -10 -10 -5 -10 6 0 17 5 25 10 8 5 11 10 5 10 -5
0 -17 -5 -25 -10z"/>
<path d="M2765 2066 c6 -35 4 -49 -9 -61 -12 -12 -16 -13 -16 -3 0 10 -2 10
-8 1 -6 -10 -17 -10 -42 -3 -86 25 -182 2 -212 -50 -22 -38 -14 -38 17 -1 44
52 86 59 218 35 51 -9 67 7 67 67 0 26 -5 51 -11 54 -7 5 -8 -7 -4 -39z"/>
<path d="M1789 1943 c-13 -15 -12 -15 9 -4 23 12 28 21 13 21 -5 0 -15 -7 -22
-17z"/>
<path d="M2461 1876 c-1 -34 5 -45 41 -79 l41 -39 81 7 c45 3 96 7 114 8 29 0
31 2 18 15 -14 14 -23 14 -85 -1 -87 -21 -93 -21 -141 3 -46 23 -52 32 -61 85
l-6 40 -2 -39z"/>
<path d="M2759 1728 c4 -28 6 -29 9 -9 2 13 0 27 -5 32 -6 6 -7 -3 -4 -23z"/>
<path d="M2742 1666 c-7 -15 -12 -33 -12 -40 0 -7 -10 -37 -22 -65 -16 -40
-25 -50 -37 -45 -9 3 -34 10 -56 15 -22 4 -56 13 -75 19 -19 5 -46 10 -60 9
-31 -1 -24 -3 75 -24 44 -9 95 -23 113 -31 26 -11 33 -11 36 -1 2 6 16 47 31
89 26 75 31 127 7 74z"/>
<path d="M2355 1550 c-14 -16 -16 -28 -10 -62 14 -78 9 -127 -16 -154 -12 -13
-17 -24 -11 -24 7 0 21 15 32 33 22 35 26 100 10 143 -13 34 -4 63 23 74 15 6
17 9 6 9 -9 1 -24 -8 -34 -19z"/>
<path d="M2418 1563 c6 -2 18 -2 25 0 6 3 1 5 -13 5 -14 0 -19 -2 -12 -5z"/>
<path d="M2083 1549 c21 -12 21 -26 1 -112 -16 -65 -16 -69 2 -105 11 -20 29
-39 39 -40 17 -4 16 1 -9 26 -31 33 -32 60 -6 149 16 56 7 93 -23 93 -20 -1
-20 -2 -4 -11z"/>
<path d="M1836 1519 c-66 -19 -133 -48 -76 -34 84 21 128 34 150 43 39 17 2
12 -74 -9z"/>
<path d="M1524 1473 c-3 -16 -7 -34 -10 -40 -5 -18 28 -16 95 3 31 9 62 18 70
21 8 2 11 6 8 9 -3 3 -35 -4 -72 -15 -88 -27 -89 -27 -82 14 7 41 0 47 -9 8z"/>
<path d="M2168 1273 c7 -3 16 -2 19 1 4 3 -2 6 -13 5 -11 0 -14 -3 -6 -6z"/>
</g>
</svg>
